<svg data-v-fde0c5aa="" xmlns="http://www.w3.org/2000/svg" viewBox="0 0 300 300" class="iconLeft"><!----><defs data-v-fde0c5aa=""><!----></defs><rect data-v-fde0c5aa="" fill="#053881" x="0" y="0" width="300px" height="300px" class="logo-background-square"></rect><defs data-v-fde0c5aa=""><!----></defs><g data-v-fde0c5aa="" id="712c2fa2-0e7e-45b7-8fac-8d4db0aa5af0" fill="#ffffff" transform="matrix(2.3234931301969546,0,0,2.3234931301969546,96.63520084937764,130.38971784818636)"><path d="M0.03 12.29L3.78 2.69L6.33 2.69L10.08 12.29L7.87 12.29L7.18 10.46L2.81 10.46L2.13 12.29L0.03 12.29ZM3.44 8.76L6.54 8.76L5.63 6.33L5.63 6.33Q5.52 6.03 5.31 5.35L5.31 5.35L5.31 5.35Q5.10 4.66 5.03 4.44L5.03 4.44L4.96 4.44L4.96 4.44Q4.89 4.66 4.68 5.35L4.68 5.35L4.68 5.35Q4.47 6.03 4.35 6.33L4.35 6.33L3.44 8.76ZM13.57 12.46L13.57 12.46Q12.17 12.46 11.40 11.50L11.40 11.50L11.40 11.50Q10.63 10.54 10.63 8.60L10.63 8.60L10.63 8.60Q10.63 6.69 11.40 5.73L11.40 5.73L11.40 5.73Q12.18 4.76 13.47 4.76L13.47 4.76L13.47 4.76Q14.21 4.76 14.78 5.03L14.78 5.03L14.78 5.03Q15.34 5.29 15.67 5.78L15.67 5.78L15.75 5.78L15.75 2.17L17.67 2.17L17.67 12.29L16.03 12.29L15.90 11.33L15.81 11.33L15.81 11.33Q15.46 11.89 14.87 12.17L14.87 12.17L14.87 12.17Q14.28 12.46 13.57 12.46L13.57 12.46ZM14.18 10.79L14.18 10.79Q15.75 10.79 15.75 8.74L15.75 8.74L15.75 8.51L15.75 8.51Q15.75 6.43 14.18 6.43L14.18 6.43L14.18 6.43Q13.33 6.43 12.96 6.94L12.96 6.94L12.96 6.94Q12.60 7.45 12.60 8.48L12.60 8.48L12.60 8.74L12.60 8.74Q12.60 9.77 12.96 10.28L12.96 10.28L12.96 10.28Q13.33 10.79 14.18 10.79L14.18 10.79ZM21.35 12.46L21.35 12.46Q20.50 12.46 19.78 12.01L19.78 12.01L19.78 12.01Q19.07 11.56 19.07 10.39L19.07 10.39L19.07 10.39Q19.07 8.97 20.23 8.38L20.23 8.38L20.23 8.38Q21.39 7.78 23.52 7.78L23.52 7.78L23.52 7.27L23.52 7.27Q23.52 6.78 23.30 6.51L23.30 6.51L23.30 6.51Q23.09 6.24 22.48 6.24L22.48 6.24L22.48 6.24Q21.84 6.24 21.57 6.44L21.57 6.44L21.57 6.44Q21.29 6.64 21.29 6.90L21.29 6.90L21.29 7.11L19.45 7.11L19.45 7.11Q19.43 7.03 19.43 6.80L19.43 6.80L19.43 6.80Q19.43 5.88 20.25 5.32L20.25 5.32L20.25 5.32Q21.07 4.76 22.43 4.76L22.43 4.76L22.43 4.76Q23.94 4.76 24.69 5.38L24.69 5.38L24.69 5.38Q25.44 5.99 25.44 7.15L25.44 7.15L25.44 10.40L25.44 10.40Q25.44 10.65 25.58 10.77L25.58 10.77L25.58 10.77Q25.72 10.89 25.93 10.89L25.93 10.89L26.32 10.89L26.32 12.24L26.32 12.24Q25.87 12.46 25.21 12.46L25.21 12.46L25.21 12.46Q24.64 12.46 24.25 12.21L24.25 12.21L24.25 12.21Q23.87 11.96 23.73 11.49L23.73 11.49L23.65 11.49L23.65 11.49Q23.24 11.97 22.71 12.21L22.71 12.21L22.71 12.21Q22.19 12.46 21.35 12.46L21.35 12.46ZM21.95 10.95L21.95 10.95Q22.76 10.95 23.14 10.49L23.14 10.49L23.14 10.49Q23.52 10.04 23.52 9.28L23.52 9.28L23.52 9.06L23.52 9.06Q21.01 9.06 21.01 10.18L21.01 10.18L21.01 10.18Q21.01 10.53 21.24 10.74L21.24 10.74L21.24 10.74Q21.48 10.95 21.95 10.95L21.95 10.95ZM27.44 14.71L27.44 4.93L29.08 4.93L29.20 5.89L29.30 5.89L29.30 5.89Q29.65 5.33 30.24 5.05L30.24 5.05L30.24 5.05Q30.83 4.76 31.54 4.76L31.54 4.76L31.54 4.76Q32.94 4.76 33.71 5.72L33.71 5.72L33.71 5.72Q34.48 6.68 34.48 8.62L34.48 8.62L34.48 8.62Q34.48 10.53 33.70 11.49L33.70 11.49L33.70 11.49Q32.93 12.46 31.64 12.46L31.64 12.46L31.64 12.46Q30.90 12.46 30.33 12.19L30.33 12.19L30.33 12.19Q29.76 11.93 29.44 11.44L29.44 11.44L29.36 11.44L29.36 14.71L27.44 14.71ZM30.93 10.79L30.93 10.79Q31.78 10.79 32.14 10.28L32.14 10.28L32.14 10.28Q32.51 9.77 32.51 8.74L32.51 8.74L32.51 8.48L32.51 8.48Q32.51 7.45 32.14 6.94L32.14 6.94L32.14 6.94Q31.78 6.43 30.93 6.43L30.93 6.43L30.93 6.43Q29.36 6.43 29.36 8.48L29.36 8.48L29.36 8.71L29.36 8.71Q29.36 10.79 30.93 10.79L30.93 10.79ZM37.97 12.46L37.97 12.46Q36.93 12.46 36.48 11.90L36.48 11.90L36.48 11.90Q36.04 11.34 36.04 10.49L36.04 10.49L36.04 6.50L35.15 6.50L35.15 4.93L36.08 4.93L36.40 2.86L37.95 2.86L37.95 4.93L39.23 4.93L39.23 6.50L37.95 6.50L37.95 10.29L37.95 10.29Q37.95 10.89 38.56 10.89L38.56 10.89L39.23 10.89L39.23 12.24L39.23 12.24Q38.99 12.32 38.63 12.39L38.63 12.39L38.63 12.39Q38.28 12.46 37.97 12.46L37.97 12.46ZM40.66 3.91L40.66 2.17L42.57 2.17L42.57 3.91L40.66 3.91ZM40.66 12.29L40.66 4.93L42.57 4.93L42.57 12.29L40.66 12.29ZM46.42 12.29L43.68 4.93L45.68 4.93L46.83 8.09L46.83 8.09Q46.96 8.44 47.17 9.24L47.17 9.24L47.17 9.24Q47.38 10.04 47.45 10.30L47.45 10.30L47.52 10.30L47.52 10.30Q47.57 10.05 47.78 9.28L47.78 9.28L47.78 9.28Q47.98 8.50 48.13 8.09L48.13 8.09L49.27 4.93L51.21 4.93L48.45 12.29L46.42 12.29ZM52.33 3.91L52.33 2.17L54.25 2.17L54.25 3.91L52.33 3.91ZM52.33 12.29L52.33 4.93L54.25 4.93L54.25 12.29L52.33 12.29ZM59.16 12.46L59.16 12.46Q57.62 12.46 56.75 11.82L56.75 11.82L56.75 11.82Q55.87 11.19 55.87 10.12L55.87 10.12L55.89 9.95L57.75 9.95L57.75 10.05L57.75 10.05Q57.76 10.54 58.19 10.76L58.19 10.76L58.19 10.76Q58.62 10.98 59.23 10.98L59.23 10.98L59.23 10.98Q59.81 10.98 60.21 10.82L60.21 10.82L60.21 10.82Q60.62 10.67 60.62 10.32L60.62 10.32L60.62 10.32Q60.62 9.93 60.21 9.73L60.21 9.73L60.21 9.73Q59.79 9.53 58.91 9.34L58.91 9.34L58.91 9.34Q58.00 9.13 57.43 8.91L57.43 8.91L57.43 8.91Q56.85 8.69 56.43 8.23L56.43 8.23L56.43 8.23Q56.01 7.77 56.01 7L56.01 7L56.01 7Q56.01 5.92 56.92 5.34L56.92 5.34L56.92 5.34Q57.82 4.76 59.25 4.76L59.25 4.76L59.25 4.76Q60.58 4.76 61.45 5.30L61.45 5.30L61.45 5.30Q62.31 5.84 62.31 6.76L62.31 6.76L62.30 7.08L60.44 7.08L60.44 7.06L60.44 7.06Q60.42 6.65 60.09 6.45L60.09 6.45L60.09 6.45Q59.75 6.24 59.18 6.24L59.18 6.24L59.18 6.24Q58.60 6.24 58.27 6.40L58.27 6.40L58.27 6.40Q57.93 6.55 57.93 6.83L57.93 6.83L57.93 6.83Q57.93 7.18 58.32 7.35L58.32 7.35L58.32 7.35Q58.70 7.52 59.56 7.69L59.56 7.69L59.56 7.69Q60.49 7.90 61.08 8.11L61.08 8.11L61.08 8.11Q61.67 8.32 62.10 8.79L62.10 8.79L62.10 8.79Q62.54 9.27 62.54 10.08L62.54 10.08L62.54 10.08Q62.54 12.46 59.16 12.46L59.16 12.46ZM67.05 12.46L67.05 12.46Q65.27 12.46 64.39 11.52L64.39 11.52L64.39 11.52Q63.52 10.58 63.52 8.61L63.52 8.61L63.52 8.61Q63.52 6.64 64.39 5.70L64.39 5.70L64.39 5.70Q65.27 4.76 67.05 4.76L67.05 4.76L67.05 4.76Q68.68 4.76 69.50 5.71L69.50 5.71L69.50 5.71Q70.31 6.65 70.31 8.61L70.31 8.61L70.31 9.06L65.46 9.06L65.46 9.06Q65.49 10.04 65.86 10.51L65.86 10.51L65.86 10.51Q66.22 10.98 67.07 10.98L67.07 10.98L67.07 10.98Q67.68 10.98 68.05 10.64L68.05 10.64L68.05 10.64Q68.42 10.30 68.42 9.69L68.42 9.69L70.31 9.69L70.31 9.69Q70.31 11.07 69.41 11.77L69.41 11.77L69.41 11.77Q68.52 12.46 67.05 12.46L67.05 12.46ZM65.49 7.78L68.32 7.78L68.32 7.78Q68.32 6.26 67.05 6.26L67.05 6.26L67.05 6.26Q66.32 6.26 65.95 6.64L65.95 6.64L65.95 6.64Q65.58 7.01 65.49 7.78L65.49 7.78Z"></path></g><defs data-v-fde0c5aa=""><!----></defs><g data-v-fde0c5aa="" id="79fed1d7-9c93-45d6-be2f-7b1f921d7adf" stroke="none" fill="#07A0B4" transform="matrix(1.3657783014391678,0,0,1.3657783014391678,40,128.14754717697332)"><path d="M9.571 20.464l8.064 4.47 8.065-4.47v-8.939l-8.065-4.469-8.064 4.469z"></path><path d="M32 0H0v32h32l-5.054-5.172H5.054V5.172h21.892z"></path></g><!----></svg>